ply
format ascii 1.0
element vertex 612
property float x
property float y
property float z
element face 204
property list uchar int vertex_indices
property uchar red
property uchar green
property uchar blue
end_header
3.090007894002156e-8 5.720211982727051 -0.6560677886009216
-1.7368439131359992e-8 7.023272514343262 -0.0426180437207222
0.03365173190832138 7.023272514343262 -0.03013550117611885
3.090007894002156e-8 5.720211982727051 -0.6560677886009216
0.03365173190832138 7.023272514343262 -0.03013550117611885
0.4405903220176697 5.8513288497924805 -0.4270918369293213
0.4405903220176697 5.8513288497924805 -0.4270918369293213
0.03365173190832138 7.023272514343262 -0.03013550117611885
0.04759075492620468 7.023272514343262 2.2595614268539066e-10
0.4405903220176697 5.8513288497924805 -0.4270918369293213
0.04759075492620468 7.023272514343262 2.2595614268539066e-10
0.6768031120300293 5.720211982727051 2.406854626713084e-8
0.6768031120300293 5.720211982727051 2.406854626713084e-8
0.04759075492620468 7.023272514343262 2.2595614268539066e-10
0.03365173190832138 7.023272514343262 0.030135497450828552
0.6768031120300293 5.720211982727051 2.406854626713084e-8
0.03365173190832138 7.023272514343262 0.030135497450828552
0.4405903220176697 5.8513288497924805 0.4270918369293213
0.4405903220176697 5.8513288497924805 0.4270918369293213
0.03365173190832138 7.023272514343262 0.030135497450828552
-2.152895817175704e-8 7.023272514343262 0.0426180437207222
0.4405903220176697 5.8513288497924805 0.4270918369293213
-2.152895817175704e-8 7.023272514343262 0.0426180437207222
-2.8267940876958164e-8 5.720211982727051 0.6560677886009216
-2.8267940876958164e-8 5.720211982727051 0.6560677886009216
-2.152895817175704e-8 7.023272514343262 0.0426180437207222
-0.03365178406238556 7.023272514343262 0.030135497450828552
-2.8267940876958164e-8 5.720211982727051 0.6560677886009216
-0.03365178406238556 7.023272514343262 0.030135497450828552
-0.4405903220176697 5.8513288497924805 0.4270918071269989
-0.4405903220176697 5.8513288497924805 0.4270918071269989
-0.03365178406238556 7.023272514343262 0.030135497450828552
-0.04759079962968826 7.023272514343262 -2.1451520559878645e-9
-0.4405903220176697 5.8513288497924805 0.4270918071269989
-0.04759079962968826 7.023272514343262 -2.1451520559878645e-9
-0.6768029928207397 5.720211982727051 -1.243261227301673e-8
0.03365173190832138 7.023272514343262 -0.03013550117611885
-1.7368439131359992e-8 7.023272514343262 -0.0426180437207222
-0.03365178406238556 7.023272514343262 -0.03013550117611885
0.03365173190832138 7.023272514343262 -0.03013550117611885
-0.03365178406238556 7.023272514343262 -0.03013550117611885
-0.04759079962968826 7.023272514343262 -2.1451520559878645e-9
0.03365173190832138 7.023272514343262 -0.03013550117611885
-0.04759079962968826 7.023272514343262 -2.1451520559878645e-9
-0.03365178406238556 7.023272514343262 0.030135497450828552
0.03365173190832138 7.023272514343262 -0.03013550117611885
-0.03365178406238556 7.023272514343262 0.030135497450828552
-2.152895817175704e-8 7.023272514343262 0.0426180437207222
0.03365173190832138 7.023272514343262 -0.03013550117611885
-2.152895817175704e-8 7.023272514343262 0.0426180437207222
0.03365173190832138 7.023272514343262 0.030135497450828552
0.03365173190832138 7.023272514343262 -0.03013550117611885
0.03365173190832138 7.023272514343262 0.030135497450828552
0.04759075492620468 7.023272514343262 2.2595614268539066e-10
-0.4405903220176697 5.8513288497924805 -0.4270918071269989
-0.03365178406238556 7.023272514343262 -0.03013550117611885
-1.7368439131359992e-8 7.023272514343262 -0.0426180437207222
-0.4405903220176697 5.8513288497924805 -0.4270918071269989
-1.7368439131359992e-8 7.023272514343262 -0.0426180437207222
3.090007894002156e-8 5.720211982727051 -0.6560677886009216
-0.6768029928207397 5.720211982727051 -1.243261227301673e-8
-0.04759079962968826 7.023272514343262 -2.1451520559878645e-9
-0.03365178406238556 7.023272514343262 -0.03013550117611885
-0.6768029928207397 5.720211982727051 -1.243261227301673e-8
-0.03365178406238556 7.023272514343262 -0.03013550117611885
-0.4405903220176697 5.8513288497924805 -0.4270918071269989
1.9959596642138422e-8 0.34734129905700684 -1.7540611028671265
1.1418718099594116 0.478458046913147 -1.1418718099594116
1.7540611028671265 0.34734129905700684 7.414223546220455e-8
1.9959596642138422e-8 0.34734129905700684 -1.7540611028671265
1.7540611028671265 0.34734129905700684 7.414223546220455e-8
1.1418718099594116 0.478458046913147 1.1418718099594116
1.9959596642138422e-8 0.34734129905700684 -1.7540611028671265
1.1418718099594116 0.478458046913147 1.1418718099594116
-1.3338529925022158e-7 0.34734129905700684 1.7540611028671265
1.9959596642138422e-8 0.34734129905700684 -1.7540611028671265
-1.3338529925022158e-7 0.34734129905700684 1.7540611028671265
-1.1418719291687012 0.478458046913147 1.1418715715408325
1.9959596642138422e-8 0.34734129905700684 -1.7540611028671265
-1.1418719291687012 0.478458046913147 1.1418715715408325
-1.7540611028671265 0.34734129905700684 -2.3447167762924437e-8
1.9959596642138422e-8 0.34734129905700684 -1.7540611028671265
-1.7540611028671265 0.34734129905700684 -2.3447167762924437e-8
-1.1418719291687012 0.478458046913147 -1.1418715715408325
2.395075782146705e-8 0.26619982719421387 -2.2897465229034424
1.5960782917545657e-8 1.4381437301635742 -1.4834386110305786
0.9673497080802917 1.569260597229004 -0.9656997919082642
2.395075782146705e-8 0.26619982719421387 -2.2897465229034424
0.9673497080802917 1.569260597229004 -0.9656997919082642
1.490596055984497 0.3973168134689331 -1.490596055984497
2.2866114335329257e-8 1.3570023775100708 -1.914958119392395
1.1961969192952893e-8 2.5289459228515625 -1.2128159999847412
0.7928277850151062 2.660062789916992 -0.789527952671051
2.2866114335329257e-8 1.3570023775100708 -1.914958119392395
0.7928277850151062 2.660062789916992 -0.789527952671051
1.2487434148788452 1.4881192445755005 -1.246613621711731
2.415571387359705e-8 2.4478046894073486 -1.4707014560699463
7.963162573787486e-9 3.61974835395813 -0.942193329334259
0.6183057427406311 3.7508652210235596 -0.6133560538291931
2.415571387359705e-8 2.4478046894073486 -1.4707014560699463
0.6183057427406311 3.7508652210235596 -0.6133560538291931
0.9614095091819763 2.5789215564727783 -0.9574081897735596
2.32804104882689e-8 3.538607120513916 -1.2127182483673096
3.96435062555156e-9 4.710550785064697 -0.671570897102356
0.443783700466156 4.841667652130127 -0.4371841847896576
2.32804104882689e-8 3.538607120513916 -1.2127182483673096
0.443783700466156 4.841667652130127 -0.4371841847896576
0.7958351969718933 3.6697239875793457 -0.7894643545150757
2.1162382068951047e-8 4.629409313201904 -0.9056137204170227
-3.445599361384666e-11 5.801352500915527 -0.40094831585884094
0.2692616581916809 5.932469367980957 -0.2610122561454773
2.1162382068951047e-8 4.629409313201904 -0.9056137204170227
0.2692616581916809 5.932469367980957 -0.2610122561454773
0.5984426736831665 4.760526180267334 -0.5895431637763977
1.490596055984497 0.3973168134689331 -1.490596055984497
0.9673497080802917 1.569260597229004 -0.9656997919082642
1.4859730005264282 1.4381437301635742 6.231295657244118e-8
1.490596055984497 0.3973168134689331 -1.490596055984497
1.4859730005264282 1.4381437301635742 6.231295657244118e-8
2.2897465229034424 0.26619982719421387 1.0154896301628469e-7
1.2487434148788452 1.4881192445755005 -1.246613621711731
0.7928277850151062 2.660062789916992 -0.789527952671051
1.21788489818573 2.5289459228515625 5.048366702453677e-8
1.2487434148788452 1.4881192445755005 -1.246613621711731
1.21788489818573 2.5289459228515625 5.048366702453677e-8
1.9182296991348267 1.3570023775100708 7.904179000206568e-8
0.9614095091819763 2.5789215564727783 -0.9574081897735596
0.6183057427406311 3.7508652210235596 -0.6133560538291931
0.9497966170310974 3.61974835395813 3.865437747663236e-8
0.9614095091819763 2.5789215564727783 -0.9574081897735596
0.9497966170310974 3.61974835395813 3.865437747663236e-8
1.4768481254577637 2.4478046894073486 5.897733501569746e-8
0.7958351969718933 3.6697239875793457 -0.7894643545150757
0.443783700466156 4.841667652130127 -0.4371841847896576
0.681708574295044 4.710550785064697 2.6825091481441632e-8
0.7958351969718933 3.6697239875793457 -0.7894643545150757
0.681708574295044 4.710550785064697 2.6825091481441632e-8
1.222504734992981 3.538607120513916 4.672705600228255e-8
0.5984426736831665 4.760526180267334 -0.5895431637763977
0.2692616581916809 5.932469367980957 -0.2610122561454773
0.4136204123497009 5.801352500915527 1.499580726260774e-8
0.5984426736831665 4.760526180267334 -0.5895431637763977
0.4136204123497009 5.801352500915527 1.499580726260774e-8
0.9192843437194824 4.629409313201904 3.4778192770090754e-8
2.2897465229034424 0.26619982719421387 1.0154896301628469e-7
1.4859730005264282 1.4381437301635742 6.231295657244118e-8
0.9673497080802917 1.569260597229004 0.9656997919082642
2.2897465229034424 0.26619982719421387 1.0154896301628469e-7
0.9673497080802917 1.569260597229004 0.9656997919082642
1.490596055984497 0.3973168134689331 1.490596055984497
1.9182296991348267 1.3570023775100708 7.904179000206568e-8
1.21788489818573 2.5289459228515625 5.048366702453677e-8
0.7928277850151062 2.660062789916992 0.789527952671051
1.9182296991348267 1.3570023775100708 7.904179000206568e-8
0.7928277850151062 2.660062789916992 0.789527952671051
1.2487434148788452 1.4881192445755005 1.246613621711731
1.4768481254577637 2.4478046894073486 5.897733501569746e-8
0.9497966170310974 3.61974835395813 3.865437747663236e-8
0.6183057427406311 3.7508652210235596 0.6133560538291931
1.4768481254577637 2.4478046894073486 5.897733501569746e-8
0.6183057427406311 3.7508652210235596 0.6133560538291931
0.9614095091819763 2.5789215564727783 0.9574081897735596
1.222504734992981 3.538607120513916 4.672705600228255e-8
0.681708574295044 4.710550785064697 2.6825091481441632e-8
0.443783700466156 4.841667652130127 0.4371841847896576
1.222504734992981 3.538607120513916 4.672705600228255e-8
0.443783700466156 4.841667652130127 0.4371841847896576
0.7958351969718933 3.6697239875793457 0.7894643545150757
0.9192843437194824 4.629409313201904 3.4778192770090754e-8
0.4136204123497009 5.801352500915527 1.499580726260774e-8
0.2692616581916809 5.932469367980957 0.2610122561454773
0.9192843437194824 4.629409313201904 3.4778192770090754e-8
0.2692616581916809 5.932469367980957 0.2610122561454773
0.5984426736831665 4.760526180267334 0.5895431637763977
1.490596055984497 0.3973168134689331 1.490596055984497
0.9673497080802917 1.569260597229004 0.9656997919082642
-1.139471024202976e-7 1.4381437301635742 1.4834386110305786
1.490596055984497 0.3973168134689331 1.490596055984497
-1.139471024202976e-7 1.4381437301635742 1.4834386110305786
-1.7622522818783182e-7 0.26619982719421387 2.2897465229034424
1.2487434148788452 1.4881192445755005 1.246613621711731
0.7928277850151062 2.660062789916992 0.789527952671051
-9.45088913795189e-8 2.5289459228515625 1.2128159999847412
1.2487434148788452 1.4881192445755005 1.246613621711731
-9.45088913795189e-8 2.5289459228515625 1.2128159999847412
-1.44830835324683e-7 1.3570023775100708 1.914958119392395
0.9614095091819763 2.5789215564727783 0.9574081897735596
0.6183057427406311 3.7508652210235596 0.6133560538291931
-7.507070165502228e-8 3.61974835395813 0.9421934485435486
0.9614095091819763 2.5789215564727783 0.9574081897735596
-7.507070165502228e-8 3.61974835395813 0.9421934485435486
-1.0495444513480834e-7 2.4478046894073486 1.4707015752792358
0.7958351969718933 3.6697239875793457 0.7894643545150757
0.443783700466156 4.841667652130127 0.4371841847896576
-5.5632508377811973e-8 4.710550785064697 0.671570897102356
0.7958351969718933 3.6697239875793457 0.7894643545150757
-5.5632508377811973e-8 4.710550785064697 0.671570897102356
-8.359434389149101e-8 3.538607120513916 1.2127184867858887
0.5984426736831665 4.760526180267334 0.5895431637763977
0.2692616581916809 5.932469367980957 0.2610122561454773
-3.619430799517431e-8 5.801352500915527 0.40094831585884094
0.5984426736831665 4.760526180267334 0.5895431637763977
-3.619430799517431e-8 5.801352500915527 0.40094831585884094
-5.920401946468701e-8 4.629409313201904 0.9056138396263123
-1.7622522818783182e-7 0.26619982719421387 2.2897465229034424
-1.139471024202976e-7 1.4381437301635742 1.4834386110305786
-0.9673498868942261 1.569260597229004 0.9656997323036194
-1.7622522818783182e-7 0.26619982719421387 2.2897465229034424
-0.9673498868942261 1.569260597229004 0.9656997323036194
-1.4905962944030762 0.3973168134689331 1.490595817565918
-1.44830835324683e-7 1.3570023775100708 1.914958119392395
-9.45088913795189e-8 2.5289459228515625 1.2128159999847412
-0.792827844619751 2.660062789916992 0.7895278334617615
-1.44830835324683e-7 1.3570023775100708 1.914958119392395
-0.792827844619751 2.660062789916992 0.7895278334617615
-1.2487436532974243 1.4881192445755005 1.2466135025024414
-1.0495444513480834e-7 2.4478046894073486 1.4707015752792358
-7.507070165502228e-8 3.61974835395813 0.9421934485435486
-0.6183058023452759 3.7508652210235596 0.6133559942245483
-1.0495444513480834e-7 2.4478046894073486 1.4707015752792358
-0.6183058023452759 3.7508652210235596 0.6133559942245483
-0.9614097476005554 2.5789215564727783 0.9574079513549805
-8.359434389149101e-8 3.538607120513916 1.2127184867858887
-5.5632508377811973e-8 4.710550785064697 0.671570897102356
-0.44378381967544556 4.841667652130127 0.43718409538269043
-8.359434389149101e-8 3.538607120513916 1.2127184867858887
-0.44378381967544556 4.841667652130127 0.43718409538269043
-0.7958352565765381 3.6697239875793457 0.7894642949104309
-5.920401946468701e-8 4.629409313201904 0.9056138396263123
-3.619430799517431e-8 5.801352500915527 0.40094831585884094
-0.26926177740097046 5.932469367980957 0.2610122561454773
-5.920401946468701e-8 4.629409313201904 0.9056138396263123
-0.26926177740097046 5.932469367980957 0.2610122561454773
-0.5984427332878113 4.760526180267334 0.5895429849624634
-1.4905962944030762 0.3973168134689331 1.490595817565918
-0.9673498868942261 1.569260597229004 0.9656997323036194
-1.4859730005264282 1.4381437301635742 -2.0220028318362893e-8
-1.4905962944030762 0.3973168134689331 1.490595817565918
-1.4859730005264282 1.4381437301635742 -2.0220028318362893e-8
-2.2897465229034424 0.26619982719421387 -2.58439882827588e-8
-1.2487436532974243 1.4881192445755005 1.2466135025024414
-0.792827844619751 2.660062789916992 0.7895278334617615
-1.21788489818573 2.5289459228515625 -1.699288887380135e-8
-1.2487436532974243 1.4881192445755005 1.2466135025024414
-1.21788489818573 2.5289459228515625 -1.699288887380135e-8
-1.9182296991348267 1.3570023775100708 -2.749932548340439e-8
-0.9614097476005554 2.5789215564727783 0.9574079513549805
-0.6183058023452759 3.7508652210235596 0.6133559942245483
-0.9497966766357422 3.61974835395813 -1.3765741435634027e-8
-0.9614097476005554 2.5789215564727783 0.9574079513549805
-0.9497966766357422 3.61974835395813 -1.3765741435634027e-8
-1.4768480062484741 2.4478046894073486 -2.284700073573731e-8
-0.7958352565765381 3.6697239875793457 0.7894642949104309
-0.44378381967544556 4.841667652130127 0.43718409538269043
-0.681708574295044 4.710550785064697 -1.0538598438358804e-8
-0.7958352565765381 3.6697239875793457 0.7894642949104309
-0.681708574295044 4.710550785064697 -1.0538598438358804e-8
-1.2225048542022705 3.538607120513916 -2.0744060691413324e-8
-0.5984427332878113 4.760526180267334 0.5895429849624634
-0.26926177740097046 5.932469367980957 0.2610122561454773
-0.4136204719543457 5.801352500915527 -7.311460770154099e-9
-0.5984427332878113 4.760526180267334 0.5895429849624634
-0.4136204719543457 5.801352500915527 -7.311460770154099e-9
-0.9192846417427063 4.629409313201904 -1.560677276302158e-8
-1.4905962944030762 0.3973168134689331 -1.490595817565918
-0.9673498868942261 1.569260597229004 -0.9656997323036194
1.5960782917545657e-8 1.4381437301635742 -1.4834386110305786
-1.4905962944030762 0.3973168134689331 -1.490595817565918
1.5960782917545657e-8 1.4381437301635742 -1.4834386110305786
2.395075782146705e-8 0.26619982719421387 -2.2897465229034424
-1.2487436532974243 1.4881192445755005 -1.2466135025024414
-0.792827844619751 2.660062789916992 -0.7895278334617615
1.1961969192952893e-8 2.5289459228515625 -1.2128159999847412
-1.2487436532974243 1.4881192445755005 -1.2466135025024414
1.1961969192952893e-8 2.5289459228515625 -1.2128159999847412
2.2866114335329257e-8 1.3570023775100708 -1.914958119392395
-0.9614097476005554 2.5789215564727783 -0.9574079513549805
-0.6183058023452759 3.7508652210235596 -0.6133559942245483
7.963162573787486e-9 3.61974835395813 -0.942193329334259
-0.9614097476005554 2.5789215564727783 -0.9574079513549805
7.963162573787486e-9 3.61974835395813 -0.942193329334259
2.415571387359705e-8 2.4478046894073486 -1.4707014560699463
-0.7958352565765381 3.6697239875793457 -0.7894642949104309
-0.44378381967544556 4.841667652130127 -0.43718409538269043
3.96435062555156e-9 4.710550785064697 -0.671570897102356
-0.7958352565765381 3.6697239875793457 -0.7894642949104309
3.96435062555156e-9 4.710550785064697 -0.671570897102356
2.32804104882689e-8 3.538607120513916 -1.2127182483673096
-0.5984427332878113 4.760526180267334 -0.5895429849624634
-0.26926177740097046 5.932469367980957 -0.2610122561454773
-3.445599361384666e-11 5.801352500915527 -0.40094831585884094
-0.5984427332878113 4.760526180267334 -0.5895429849624634
-3.445599361384666e-11 5.801352500915527 -0.40094831585884094
2.1162382068951047e-8 4.629409313201904 -0.9056137204170227
-2.2897465229034424 0.26619982719421387 -2.58439882827588e-8
-1.4859730005264282 1.4381437301635742 -2.0220028318362893e-8
-0.9673498868942261 1.569260597229004 -0.9656997323036194
-2.2897465229034424 0.26619982719421387 -2.58439882827588e-8
-0.9673498868942261 1.569260597229004 -0.9656997323036194
-1.4905962944030762 0.3973168134689331 -1.490595817565918
-1.9182296991348267 1.3570023775100708 -2.749932548340439e-8
-1.21788489818573 2.5289459228515625 -1.699288887380135e-8
-0.792827844619751 2.660062789916992 -0.7895278334617615
-1.9182296991348267 1.3570023775100708 -2.749932548340439e-8
-0.792827844619751 2.660062789916992 -0.7895278334617615
-1.2487436532974243 1.4881192445755005 -1.2466135025024414
-1.4768480062484741 2.4478046894073486 -2.284700073573731e-8
-0.9497966766357422 3.61974835395813 -1.3765741435634027e-8
-0.6183058023452759 3.7508652210235596 -0.6133559942245483
-1.4768480062484741 2.4478046894073486 -2.284700073573731e-8
-0.6183058023452759 3.7508652210235596 -0.6133559942245483
-0.9614097476005554 2.5789215564727783 -0.9574079513549805
-1.2225048542022705 3.538607120513916 -2.0744060691413324e-8
-0.681708574295044 4.710550785064697 -1.0538598438358804e-8
-0.44378381967544556 4.841667652130127 -0.43718409538269043
-1.2225048542022705 3.538607120513916 -2.0744060691413324e-8
-0.44378381967544556 4.841667652130127 -0.43718409538269043
-0.7958352565765381 3.6697239875793457 -0.7894642949104309
-0.9192846417427063 4.629409313201904 -1.560677276302158e-8
-0.4136204719543457 5.801352500915527 -7.311460770154099e-9
-0.26926177740097046 5.932469367980957 -0.2610122561454773
-0.9192846417427063 4.629409313201904 -1.560677276302158e-8
-0.26926177740097046 5.932469367980957 -0.2610122561454773
-0.5984427332878113 4.760526180267334 -0.5895429849624634
-3.445599361384666e-11 5.801352500915527 -0.40094831585884094
3.090007894002156e-8 5.720211982727051 -0.6560677886009216
0.4405903220176697 5.8513288497924805 -0.4270918369293213
-3.445599361384666e-11 5.801352500915527 -0.40094831585884094
0.4405903220176697 5.8513288497924805 -0.4270918369293213
0.2692616581916809 5.932469367980957 -0.2610122561454773
0.2692616581916809 5.932469367980957 -0.2610122561454773
0.4405903220176697 5.8513288497924805 -0.4270918369293213
0.6768031120300293 5.720211982727051 2.406854626713084e-8
0.2692616581916809 5.932469367980957 -0.2610122561454773
0.6768031120300293 5.720211982727051 2.406854626713084e-8
0.4136204123497009 5.801352500915527 1.499580726260774e-8
0.4136204123497009 5.801352500915527 1.499580726260774e-8
0.6768031120300293 5.720211982727051 2.406854626713084e-8
0.4405903220176697 5.8513288497924805 0.4270918369293213
0.4136204123497009 5.801352500915527 1.499580726260774e-8
0.4405903220176697 5.8513288497924805 0.4270918369293213
0.2692616581916809 5.932469367980957 0.2610122561454773
0.2692616581916809 5.932469367980957 0.2610122561454773
0.4405903220176697 5.8513288497924805 0.4270918369293213
-2.8267940876958164e-8 5.720211982727051 0.6560677886009216
0.2692616581916809 5.932469367980957 0.2610122561454773
-2.8267940876958164e-8 5.720211982727051 0.6560677886009216
-3.619430799517431e-8 5.801352500915527 0.40094831585884094
-3.619430799517431e-8 5.801352500915527 0.40094831585884094
-2.8267940876958164e-8 5.720211982727051 0.6560677886009216
-0.4405903220176697 5.8513288497924805 0.4270918071269989
-3.619430799517431e-8 5.801352500915527 0.40094831585884094
-0.4405903220176697 5.8513288497924805 0.4270918071269989
-0.26926177740097046 5.932469367980957 0.2610122561454773
-0.26926177740097046 5.932469367980957 0.2610122561454773
-0.4405903220176697 5.8513288497924805 0.4270918071269989
-0.6768029928207397 5.720211982727051 -1.243261227301673e-8
-0.26926177740097046 5.932469367980957 0.2610122561454773
-0.6768029928207397 5.720211982727051 -1.243261227301673e-8
-0.4136204719543457 5.801352500915527 -7.311460770154099e-9
-0.26926177740097046 5.932469367980957 -0.2610122561454773
-0.4405903220176697 5.8513288497924805 -0.4270918071269989
3.090007894002156e-8 5.720211982727051 -0.6560677886009216
-0.26926177740097046 5.932469367980957 -0.2610122561454773
3.090007894002156e-8 5.720211982727051 -0.6560677886009216
-3.445599361384666e-11 5.801352500915527 -0.40094831585884094
-0.4136204719543457 5.801352500915527 -7.311460770154099e-9
-0.6768029928207397 5.720211982727051 -1.243261227301673e-8
-0.4405903220176697 5.8513288497924805 -0.4270918071269989
-0.4136204719543457 5.801352500915527 -7.311460770154099e-9
-0.4405903220176697 5.8513288497924805 -0.4270918071269989
-0.26926177740097046 5.932469367980957 -0.2610122561454773
3.96435062555156e-9 4.710550785064697 -0.671570897102356
2.1162382068951047e-8 4.629409313201904 -0.9056137204170227
0.5984426736831665 4.760526180267334 -0.5895431637763977
3.96435062555156e-9 4.710550785064697 -0.671570897102356
0.5984426736831665 4.760526180267334 -0.5895431637763977
0.443783700466156 4.841667652130127 -0.4371841847896576
0.443783700466156 4.841667652130127 -0.4371841847896576
0.5984426736831665 4.760526180267334 -0.5895431637763977
0.9192843437194824 4.629409313201904 3.4778192770090754e-8
0.443783700466156 4.841667652130127 -0.4371841847896576
0.9192843437194824 4.629409313201904 3.4778192770090754e-8
0.681708574295044 4.710550785064697 2.6825091481441632e-8
0.681708574295044 4.710550785064697 2.6825091481441632e-8
0.9192843437194824 4.629409313201904 3.4778192770090754e-8
0.5984426736831665 4.760526180267334 0.5895431637763977
0.681708574295044 4.710550785064697 2.6825091481441632e-8
0.5984426736831665 4.760526180267334 0.5895431637763977
0.443783700466156 4.841667652130127 0.4371841847896576
0.443783700466156 4.841667652130127 0.4371841847896576
0.5984426736831665 4.760526180267334 0.5895431637763977
-5.920401946468701e-8 4.629409313201904 0.9056138396263123
0.443783700466156 4.841667652130127 0.4371841847896576
-5.920401946468701e-8 4.629409313201904 0.9056138396263123
-5.5632508377811973e-8 4.710550785064697 0.671570897102356
-5.5632508377811973e-8 4.710550785064697 0.671570897102356
-5.920401946468701e-8 4.629409313201904 0.9056138396263123
-0.5984427332878113 4.760526180267334 0.5895429849624634
-5.5632508377811973e-8 4.710550785064697 0.671570897102356
-0.5984427332878113 4.760526180267334 0.5895429849624634
-0.44378381967544556 4.841667652130127 0.43718409538269043
-0.44378381967544556 4.841667652130127 0.43718409538269043
-0.5984427332878113 4.760526180267334 0.5895429849624634
-0.9192846417427063 4.629409313201904 -1.560677276302158e-8
-0.44378381967544556 4.841667652130127 0.43718409538269043
-0.9192846417427063 4.629409313201904 -1.560677276302158e-8
-0.681708574295044 4.710550785064697 -1.0538598438358804e-8
-0.44378381967544556 4.841667652130127 -0.43718409538269043
-0.5984427332878113 4.760526180267334 -0.5895429849624634
2.1162382068951047e-8 4.629409313201904 -0.9056137204170227
-0.44378381967544556 4.841667652130127 -0.43718409538269043
2.1162382068951047e-8 4.629409313201904 -0.9056137204170227
3.96435062555156e-9 4.710550785064697 -0.671570897102356
-0.681708574295044 4.710550785064697 -1.0538598438358804e-8
-0.9192846417427063 4.629409313201904 -1.560677276302158e-8
-0.5984427332878113 4.760526180267334 -0.5895429849624634
-0.681708574295044 4.710550785064697 -1.0538598438358804e-8
-0.5984427332878113 4.760526180267334 -0.5895429849624634
-0.44378381967544556 4.841667652130127 -0.43718409538269043
7.963162573787486e-9 3.61974835395813 -0.942193329334259
2.32804104882689e-8 3.538607120513916 -1.2127182483673096
0.7958351969718933 3.6697239875793457 -0.7894643545150757
7.963162573787486e-9 3.61974835395813 -0.942193329334259
0.7958351969718933 3.6697239875793457 -0.7894643545150757
0.6183057427406311 3.7508652210235596 -0.6133560538291931
0.6183057427406311 3.7508652210235596 -0.6133560538291931
0.7958351969718933 3.6697239875793457 -0.7894643545150757
1.222504734992981 3.538607120513916 4.672705600228255e-8
0.6183057427406311 3.7508652210235596 -0.6133560538291931
1.222504734992981 3.538607120513916 4.672705600228255e-8
0.9497966170310974 3.61974835395813 3.865437747663236e-8
0.9497966170310974 3.61974835395813 3.865437747663236e-8
1.222504734992981 3.538607120513916 4.672705600228255e-8
0.7958351969718933 3.6697239875793457 0.7894643545150757
0.9497966170310974 3.61974835395813 3.865437747663236e-8
0.7958351969718933 3.6697239875793457 0.7894643545150757
0.6183057427406311 3.7508652210235596 0.6133560538291931
0.6183057427406311 3.7508652210235596 0.6133560538291931
0.7958351969718933 3.6697239875793457 0.7894643545150757
-8.359434389149101e-8 3.538607120513916 1.2127184867858887
0.6183057427406311 3.7508652210235596 0.6133560538291931
-8.359434389149101e-8 3.538607120513916 1.2127184867858887
-7.507070165502228e-8 3.61974835395813 0.9421934485435486
-7.507070165502228e-8 3.61974835395813 0.9421934485435486
-8.359434389149101e-8 3.538607120513916 1.2127184867858887
-0.7958352565765381 3.6697239875793457 0.7894642949104309
-7.507070165502228e-8 3.61974835395813 0.9421934485435486
-0.7958352565765381 3.6697239875793457 0.7894642949104309
-0.6183058023452759 3.7508652210235596 0.6133559942245483
-0.6183058023452759 3.7508652210235596 0.6133559942245483
-0.7958352565765381 3.6697239875793457 0.7894642949104309
-1.2225048542022705 3.538607120513916 -2.0744060691413324e-8
-0.6183058023452759 3.7508652210235596 0.6133559942245483
-1.2225048542022705 3.538607120513916 -2.0744060691413324e-8
-0.9497966766357422 3.61974835395813 -1.3765741435634027e-8
-0.6183058023452759 3.7508652210235596 -0.6133559942245483
-0.7958352565765381 3.6697239875793457 -0.7894642949104309
2.32804104882689e-8 3.538607120513916 -1.2127182483673096
-0.6183058023452759 3.7508652210235596 -0.6133559942245483
2.32804104882689e-8 3.538607120513916 -1.2127182483673096
7.963162573787486e-9 3.61974835395813 -0.942193329334259
-0.9497966766357422 3.61974835395813 -1.3765741435634027e-8
-1.2225048542022705 3.538607120513916 -2.0744060691413324e-8
-0.7958352565765381 3.6697239875793457 -0.7894642949104309
-0.9497966766357422 3.61974835395813 -1.3765741435634027e-8
-0.7958352565765381 3.6697239875793457 -0.7894642949104309
-0.6183058023452759 3.7508652210235596 -0.6133559942245483
1.1961969192952893e-8 2.5289459228515625 -1.2128159999847412
2.415571387359705e-8 2.4478046894073486 -1.4707014560699463
0.9614095091819763 2.5789215564727783 -0.9574081897735596
1.1961969192952893e-8 2.5289459228515625 -1.2128159999847412
0.9614095091819763 2.5789215564727783 -0.9574081897735596
0.7928277850151062 2.660062789916992 -0.789527952671051
0.7928277850151062 2.660062789916992 -0.789527952671051
0.9614095091819763 2.5789215564727783 -0.9574081897735596
1.4768481254577637 2.4478046894073486 5.897733501569746e-8
0.7928277850151062 2.660062789916992 -0.789527952671051
1.4768481254577637 2.4478046894073486 5.897733501569746e-8
1.21788489818573 2.5289459228515625 5.048366702453677e-8
1.21788489818573 2.5289459228515625 5.048366702453677e-8
1.4768481254577637 2.4478046894073486 5.897733501569746e-8
0.9614095091819763 2.5789215564727783 0.9574081897735596
1.21788489818573 2.5289459228515625 5.048366702453677e-8
0.9614095091819763 2.5789215564727783 0.9574081897735596
0.7928277850151062 2.660062789916992 0.789527952671051
0.7928277850151062 2.660062789916992 0.789527952671051
0.9614095091819763 2.5789215564727783 0.9574081897735596
-1.0495444513480834e-7 2.4478046894073486 1.4707015752792358
0.7928277850151062 2.660062789916992 0.789527952671051
-1.0495444513480834e-7 2.4478046894073486 1.4707015752792358
-9.45088913795189e-8 2.5289459228515625 1.2128159999847412
-9.45088913795189e-8 2.5289459228515625 1.2128159999847412
-1.0495444513480834e-7 2.4478046894073486 1.4707015752792358
-0.9614097476005554 2.5789215564727783 0.9574079513549805
-9.45088913795189e-8 2.5289459228515625 1.2128159999847412
-0.9614097476005554 2.5789215564727783 0.9574079513549805
-0.792827844619751 2.660062789916992 0.7895278334617615
-0.792827844619751 2.660062789916992 0.7895278334617615
-0.9614097476005554 2.5789215564727783 0.9574079513549805
-1.4768480062484741 2.4478046894073486 -2.284700073573731e-8
-0.792827844619751 2.660062789916992 0.7895278334617615
-1.4768480062484741 2.4478046894073486 -2.284700073573731e-8
-1.21788489818573 2.5289459228515625 -1.699288887380135e-8
-0.792827844619751 2.660062789916992 -0.7895278334617615
-0.9614097476005554 2.5789215564727783 -0.9574079513549805
2.415571387359705e-8 2.4478046894073486 -1.4707014560699463
-0.792827844619751 2.660062789916992 -0.7895278334617615
2.415571387359705e-8 2.4478046894073486 -1.4707014560699463
1.1961969192952893e-8 2.5289459228515625 -1.2128159999847412
-1.21788489818573 2.5289459228515625 -1.699288887380135e-8
-1.4768480062484741 2.4478046894073486 -2.284700073573731e-8
-0.9614097476005554 2.5789215564727783 -0.9574079513549805
-1.21788489818573 2.5289459228515625 -1.699288887380135e-8
-0.9614097476005554 2.5789215564727783 -0.9574079513549805
-0.792827844619751 2.660062789916992 -0.7895278334617615
1.5960782917545657e-8 1.4381437301635742 -1.4834386110305786
2.2866114335329257e-8 1.3570023775100708 -1.914958119392395
1.2487434148788452 1.4881192445755005 -1.246613621711731
1.5960782917545657e-8 1.4381437301635742 -1.4834386110305786
1.2487434148788452 1.4881192445755005 -1.246613621711731
0.9673497080802917 1.569260597229004 -0.9656997919082642
0.9673497080802917 1.569260597229004 -0.9656997919082642
1.2487434148788452 1.4881192445755005 -1.246613621711731
1.9182296991348267 1.3570023775100708 7.904179000206568e-8
0.9673497080802917 1.569260597229004 -0.9656997919082642
1.9182296991348267 1.3570023775100708 7.904179000206568e-8
1.4859730005264282 1.4381437301635742 6.231295657244118e-8
1.4859730005264282 1.4381437301635742 6.231295657244118e-8
1.9182296991348267 1.3570023775100708 7.904179000206568e-8
1.2487434148788452 1.4881192445755005 1.246613621711731
1.4859730005264282 1.4381437301635742 6.231295657244118e-8
1.2487434148788452 1.4881192445755005 1.246613621711731
0.9673497080802917 1.569260597229004 0.9656997919082642
0.9673497080802917 1.569260597229004 0.9656997919082642
1.2487434148788452 1.4881192445755005 1.246613621711731
-1.44830835324683e-7 1.3570023775100708 1.914958119392395
0.9673497080802917 1.569260597229004 0.9656997919082642
-1.44830835324683e-7 1.3570023775100708 1.914958119392395
-1.139471024202976e-7 1.4381437301635742 1.4834386110305786
-1.139471024202976e-7 1.4381437301635742 1.4834386110305786
-1.44830835324683e-7 1.3570023775100708 1.914958119392395
-1.2487436532974243 1.4881192445755005 1.2466135025024414
-1.139471024202976e-7 1.4381437301635742 1.4834386110305786
-1.2487436532974243 1.4881192445755005 1.2466135025024414
-0.9673498868942261 1.569260597229004 0.9656997323036194
-0.9673498868942261 1.569260597229004 0.9656997323036194
-1.2487436532974243 1.4881192445755005 1.2466135025024414
-1.9182296991348267 1.3570023775100708 -2.749932548340439e-8
-0.9673498868942261 1.569260597229004 0.9656997323036194
-1.9182296991348267 1.3570023775100708 -2.749932548340439e-8
-1.4859730005264282 1.4381437301635742 -2.0220028318362893e-8
-0.9673498868942261 1.569260597229004 -0.9656997323036194
-1.2487436532974243 1.4881192445755005 -1.2466135025024414
2.2866114335329257e-8 1.3570023775100708 -1.914958119392395
-0.9673498868942261 1.569260597229004 -0.9656997323036194
2.2866114335329257e-8 1.3570023775100708 -1.914958119392395
1.5960782917545657e-8 1.4381437301635742 -1.4834386110305786
-1.4859730005264282 1.4381437301635742 -2.0220028318362893e-8
-1.9182296991348267 1.3570023775100708 -2.749932548340439e-8
-1.2487436532974243 1.4881192445755005 -1.2466135025024414
-1.4859730005264282 1.4381437301635742 -2.0220028318362893e-8
-1.2487436532974243 1.4881192445755005 -1.2466135025024414
-0.9673498868942261 1.569260597229004 -0.9656997323036194
1.9959596642138422e-8 0.34734129905700684 -1.7540611028671265
2.395075782146705e-8 0.26619982719421387 -2.2897465229034424
1.490596055984497 0.3973168134689331 -1.490596055984497
1.9959596642138422e-8 0.34734129905700684 -1.7540611028671265
1.490596055984497 0.3973168134689331 -1.490596055984497
1.1418718099594116 0.478458046913147 -1.1418718099594116
1.1418718099594116 0.478458046913147 -1.1418718099594116
1.490596055984497 0.3973168134689331 -1.490596055984497
2.2897465229034424 0.26619982719421387 1.0154896301628469e-7
1.1418718099594116 0.478458046913147 -1.1418718099594116
2.2897465229034424 0.26619982719421387 1.0154896301628469e-7
1.7540611028671265 0.34734129905700684 7.414223546220455e-8
1.7540611028671265 0.34734129905700684 7.414223546220455e-8
2.2897465229034424 0.26619982719421387 1.0154896301628469e-7
1.490596055984497 0.3973168134689331 1.490596055984497
1.7540611028671265 0.34734129905700684 7.414223546220455e-8
1.490596055984497 0.3973168134689331 1.490596055984497
1.1418718099594116 0.478458046913147 1.1418718099594116
1.1418718099594116 0.478458046913147 1.1418718099594116
1.490596055984497 0.3973168134689331 1.490596055984497
-1.7622522818783182e-7 0.26619982719421387 2.2897465229034424
1.1418718099594116 0.478458046913147 1.1418718099594116
-1.7622522818783182e-7 0.26619982719421387 2.2897465229034424
-1.3338529925022158e-7 0.34734129905700684 1.7540611028671265
-1.3338529925022158e-7 0.34734129905700684 1.7540611028671265
-1.7622522818783182e-7 0.26619982719421387 2.2897465229034424
-1.4905962944030762 0.3973168134689331 1.490595817565918
-1.3338529925022158e-7 0.34734129905700684 1.7540611028671265
-1.4905962944030762 0.3973168134689331 1.490595817565918
-1.1418719291687012 0.478458046913147 1.1418715715408325
-1.1418719291687012 0.478458046913147 1.1418715715408325
-1.4905962944030762 0.3973168134689331 1.490595817565918
-2.2897465229034424 0.26619982719421387 -2.58439882827588e-8
-1.1418719291687012 0.478458046913147 1.1418715715408325
-2.2897465229034424 0.26619982719421387 -2.58439882827588e-8
-1.7540611028671265 0.34734129905700684 -2.3447167762924437e-8
-1.1418719291687012 0.478458046913147 -1.1418715715408325
-1.4905962944030762 0.3973168134689331 -1.490595817565918
2.395075782146705e-8 0.26619982719421387 -2.2897465229034424
-1.1418719291687012 0.478458046913147 -1.1418715715408325
2.395075782146705e-8 0.26619982719421387 -2.2897465229034424
1.9959596642138422e-8 0.34734129905700684 -1.7540611028671265
-1.7540611028671265 0.34734129905700684 -2.3447167762924437e-8
-2.2897465229034424 0.26619982719421387 -2.58439882827588e-8
-1.4905962944030762 0.3973168134689331 -1.490595817565918
-1.7540611028671265 0.34734129905700684 -2.3447167762924437e-8
-1.4905962944030762 0.3973168134689331 -1.490595817565918
-1.1418719291687012 0.478458046913147 -1.1418715715408325
3 0 1 2 51 115 14
3 3 4 5 51 115 14
3 6 7 8 51 115 14
3 9 10 11 51 115 14
3 12 13 14 51 115 14
3 15 16 17 51 115 14
3 18 19 20 51 115 14
3 21 22 23 51 115 14
3 24 25 26 51 115 14
3 27 28 29 51 115 14
3 30 31 32 51 115 14
3 33 34 35 51 115 14
3 36 37 38 51 115 14
3 39 40 41 51 115 14
3 42 43 44 51 115 14
3 45 46 47 51 115 14
3 48 49 50 51 115 14
3 51 52 53 51 115 14
3 54 55 56 51 115 14
3 57 58 59 51 115 14
3 60 61 62 51 115 14
3 63 64 65 51 115 14
3 66 67 68 23 66 7
3 69 70 71 23 66 7
3 72 73 74 23 66 7
3 75 76 77 23 66 7
3 78 79 80 23 66 7
3 81 82 83 23 66 7
3 84 85 86 51 115 14
3 87 88 89 51 115 14
3 90 91 92 51 115 14
3 93 94 95 51 115 14
3 96 97 98 51 115 14
3 99 100 101 51 115 14
3 102 103 104 51 115 14
3 105 106 107 51 115 14
3 108 109 110 51 115 14
3 111 112 113 51 115 14
3 114 115 116 51 115 14
3 117 118 119 51 115 14
3 120 121 122 51 115 14
3 123 124 125 51 115 14
3 126 127 128 51 115 14
3 129 130 131 51 115 14
3 132 133 134 51 115 14
3 135 136 137 51 115 14
3 138 139 140 51 115 14
3 141 142 143 51 115 14
3 144 145 146 51 115 14
3 147 148 149 51 115 14
3 150 151 152 51 115 14
3 153 154 155 51 115 14
3 156 157 158 51 115 14
3 159 160 161 51 115 14
3 162 163 164 51 115 14
3 165 166 167 51 115 14
3 168 169 170 51 115 14
3 171 172 173 51 115 14
3 174 175 176 51 115 14
3 177 178 179 51 115 14
3 180 181 182 51 115 14
3 183 184 185 51 115 14
3 186 187 188 51 115 14
3 189 190 191 51 115 14
3 192 193 194 51 115 14
3 195 196 197 51 115 14
3 198 199 200 51 115 14
3 201 202 203 51 115 14
3 204 205 206 51 115 14
3 207 208 209 51 115 14
3 210 211 212 51 115 14
3 213 214 215 51 115 14
3 216 217 218 51 115 14
3 219 220 221 51 115 14
3 222 223 224 51 115 14
3 225 226 227 51 115 14
3 228 229 230 51 115 14
3 231 232 233 51 115 14
3 234 235 236 51 115 14
3 237 238 239 51 115 14
3 240 241 242 51 115 14
3 243 244 245 51 115 14
3 246 247 248 51 115 14
3 249 250 251 51 115 14
3 252 253 254 51 115 14
3 255 256 257 51 115 14
3 258 259 260 51 115 14
3 261 262 263 51 115 14
3 264 265 266 51 115 14
3 267 268 269 51 115 14
3 270 271 272 51 115 14
3 273 274 275 51 115 14
3 276 277 278 51 115 14
3 279 280 281 51 115 14
3 282 283 284 51 115 14
3 285 286 287 51 115 14
3 288 289 290 51 115 14
3 291 292 293 51 115 14
3 294 295 296 51 115 14
3 297 298 299 51 115 14
3 300 301 302 51 115 14
3 303 304 305 51 115 14
3 306 307 308 51 115 14
3 309 310 311 51 115 14
3 312 313 314 51 115 14
3 315 316 317 51 115 14
3 318 319 320 51 115 14
3 321 322 323 51 115 14
3 324 325 326 51 115 14
3 327 328 329 51 115 14
3 330 331 332 51 115 14
3 333 334 335 51 115 14
3 336 337 338 51 115 14
3 339 340 341 51 115 14
3 342 343 344 51 115 14
3 345 346 347 51 115 14
3 348 349 350 51 115 14
3 351 352 353 51 115 14
3 354 355 356 51 115 14
3 357 358 359 51 115 14
3 360 361 362 51 115 14
3 363 364 365 51 115 14
3 366 367 368 51 115 14
3 369 370 371 51 115 14
3 372 373 374 51 115 14
3 375 376 377 51 115 14
3 378 379 380 51 115 14
3 381 382 383 51 115 14
3 384 385 386 51 115 14
3 387 388 389 51 115 14
3 390 391 392 51 115 14
3 393 394 395 51 115 14
3 396 397 398 51 115 14
3 399 400 401 51 115 14
3 402 403 404 51 115 14
3 405 406 407 51 115 14
3 408 409 410 51 115 14
3 411 412 413 51 115 14
3 414 415 416 51 115 14
3 417 418 419 51 115 14
3 420 421 422 51 115 14
3 423 424 425 51 115 14
3 426 427 428 51 115 14
3 429 430 431 51 115 14
3 432 433 434 51 115 14
3 435 436 437 51 115 14
3 438 439 440 51 115 14
3 441 442 443 51 115 14
3 444 445 446 51 115 14
3 447 448 449 51 115 14
3 450 451 452 51 115 14
3 453 454 455 51 115 14
3 456 457 458 51 115 14
3 459 460 461 51 115 14
3 462 463 464 51 115 14
3 465 466 467 51 115 14
3 468 469 470 51 115 14
3 471 472 473 51 115 14
3 474 475 476 51 115 14
3 477 478 479 51 115 14
3 480 481 482 51 115 14
3 483 484 485 51 115 14
3 486 487 488 51 115 14
3 489 490 491 51 115 14
3 492 493 494 51 115 14
3 495 496 497 51 115 14
3 498 499 500 51 115 14
3 501 502 503 51 115 14
3 504 505 506 51 115 14
3 507 508 509 51 115 14
3 510 511 512 51 115 14
3 513 514 515 51 115 14
3 516 517 518 51 115 14
3 519 520 521 51 115 14
3 522 523 524 51 115 14
3 525 526 527 51 115 14
3 528 529 530 51 115 14
3 531 532 533 51 115 14
3 534 535 536 51 115 14
3 537 538 539 51 115 14
3 540 541 542 51 115 14
3 543 544 545 51 115 14
3 546 547 548 51 115 14
3 549 550 551 51 115 14
3 552 553 554 51 115 14
3 555 556 557 51 115 14
3 558 559 560 51 115 14
3 561 562 563 51 115 14
3 564 565 566 23 66 7
3 567 568 569 23 66 7
3 570 571 572 23 66 7
3 573 574 575 23 66 7
3 576 577 578 23 66 7
3 579 580 581 23 66 7
3 582 583 584 23 66 7
3 585 586 587 23 66 7
3 588 589 590 23 66 7
3 591 592 593 23 66 7
3 594 595 596 23 66 7
3 597 598 599 23 66 7
3 600 601 602 23 66 7
3 603 604 605 23 66 7
3 606 607 608 23 66 7
3 609 610 611 23 66 7